<mxfile host="app.diagrams.net" modified="2023-10-27T18:23:21.835Z" agent="Mozilla/5.0 (X11; CrOS x86_64 14541.0.0) AppleWebKit/537.36 (KHTML, like Gecko) Chrome/117.0.0.0 Safari/537.36" version="22.0.8" etag="y7ZaMnfWLXVb65Y2P3CG" type="github">
  <diagram name="Page-1" id="zmsAA1IwOfnFMYAsX0Bf">
    <mxGraphModel>
      <root>
        <mxCell id="0" />
        <mxCell id="1" parent="0" />
      </root>
    </mxGraphModel>
  </diagram>
</mxfile>
